<svg width="24" height="24" viewBox="0 0 24 24" fill="none" xmlns="http://www.w3.org/2000/svg">
<path d="M12 2C9.625 2 7.35 2.85 5.525 4.35C3.725 5.9 2.5 8.025 2.125 10.35C1.75 12.675 2.225 15.075 3.45 17.075C4.65 19.1 6.575 20.65 8.85 21.375C9.35 21.475 9.525 21.15 9.525 20.9C9.525 20.65 9.5 19.875 9.5 19.05C6.725 19.65 6.15 17.875 6.15 17.875C5.675 16.725 5.025 16.425 5.025 16.425C4.125 15.8 5.075 15.825 5.075 15.825C6.1 15.9 6.65 16.85 6.65 16.85C7.5 18.35 8.95 17.925 9.55 17.65C9.65 17.025 9.875 16.575 10.175 16.35C7.95 16.075 5.625 15.225 5.625 11.425C5.6 10.45 5.95 9.475 6.65 8.75C6.55 8.5 6.2 7.5 6.75 6.125C6.75 6.125 7.575 5.85 9.5 7.15C11.15 6.675 12.85 6.675 14.5 7.15C16.4 5.85 17.25 6.125 17.25 6.125C17.775 7.5 17.45 8.5 17.35 8.75C18.025 9.475 18.375 10.45 18.375 11.425C18.375 15.25 16.05 16.075 13.8 16.35C14.175 16.65 14.5 17.25 14.5 18.175C14.5 19.5 14.475 20.575 14.475 20.9C14.475 21.15 14.65 21.475 15.15 21.375C17.425 20.65 19.35 19.1 20.55 17.075C21.775 15.075 22.25 12.675 21.875 10.35C21.5 8.025 20.275 5.9 18.475 4.35C16.65 2.85 14.35 2 12 2Z" fill="#7B61FF"/>
</svg>
